<svg width="1024" height="1024" viewBox="0 0 1024 1024" fill="none" xmlns="http://www.w3.org/2000/svg">
<path d="M661.932 323.038C663.226 323.513 664.52 323.989 665.853 324.479C692.081 334.702 709.296 353.934 720.596 379.284C728.131 398.02 728.964 423.066 721.9 442.071C716.469 454.346 709.95 465.992 701.041 476.08C702.186 476.401 703.33 476.721 704.509 477.051C720.28 483.011 732.719 499.346 740.151 514.014C748.998 534.544 752.173 558.105 745.202 579.825C744.025 582.771 742.781 585.692 741.455 588.573C740.903 589.838 740.352 591.102 739.784 592.405C730.958 610.58 715.103 624.135 697.538 633.374C696.742 633.805 695.946 634.237 695.126 634.681C676.325 644.097 655.138 642.908 634.696 643.06C630.957 643.09 627.219 643.135 623.48 643.178C609.356 643.34 595.231 643.433 581.106 643.511C579.889 643.518 578.671 643.525 577.417 643.532C542.964 643.723 508.511 643.808 474.057 643.822C471.165 643.823 468.273 643.824 465.381 643.826C463.946 643.826 462.51 643.827 461.031 643.828C449.215 643.834 437.398 643.861 425.582 643.891C414 643.919 402.419 643.932 390.838 643.934C383.999 643.935 377.161 643.943 370.323 643.966C363.952 643.988 357.581 643.991 351.21 643.979C348.896 643.978 346.581 643.984 344.267 643.997C312.672 644.165 284.595 637.615 260.862 615.312C242.146 595.782 234.904 573.066 235.001 546.494C235.625 525.336 245.273 506.256 259.645 490.975C273.677 477.98 292.54 466.713 312.147 466.679C314.285 466.8 314.285 466.8 316.466 466.924C316.39 465.905 316.315 464.887 316.237 463.838C315.063 434.627 326.668 406.673 345.146 384.516C345.959 383.488 346.773 382.459 347.611 381.399C366.811 358.168 397.499 342.175 427.276 338.734C466.844 336.76 499.22 344.368 529.53 370.945C534.538 375.609 539.006 380.496 543.3 385.824C543.947 384.465 544.594 383.106 545.261 381.706C557.574 356.18 573.055 335.304 600.661 325.163C602.833 324.452 605.005 323.744 607.179 323.038C608.228 322.589 609.276 322.141 610.357 321.679C625.461 315.995 647.111 317.247 661.932 323.038Z" fill="#7EBFE7"/>
<path d="M662.12 323.021C663.415 323.495 664.709 323.969 666.043 324.458C692.28 334.648 709.501 353.817 720.805 379.085C728.343 397.76 729.176 422.725 722.11 441.669C716.676 453.904 710.155 465.512 701.244 475.568C702.388 475.887 703.533 476.207 704.713 476.536C720.489 482.476 732.933 498.759 740.367 513.379C750.209 536.135 752.33 561.135 743.098 584.518C742.627 585.567 742.156 586.616 741.671 587.696C740.38 587.696 739.089 587.696 737.759 587.696C737.725 586.59 737.692 585.484 737.657 584.345C736.645 563.416 730.868 545.075 716.893 529.024C702.223 515.822 687.063 509.24 667.337 506.86C667.066 505.66 666.795 504.459 666.516 503.223C660.487 478.456 649.098 458.02 626.909 444.276C607.578 432.722 585.987 429.46 563.985 434.416C560.12 435.411 556.361 436.495 552.574 437.757C552.129 437.187 551.684 436.616 551.225 436.028C528.424 406.975 501.053 385.772 463.487 380.063C430.062 376.259 394.824 382.369 367.471 403.206C365.233 405.119 363.037 407.081 360.869 409.073C360.114 409.766 359.358 410.459 358.58 411.174C347.249 421.693 338.113 431.823 330.875 445.58C329.941 447.249 329.008 448.918 328.073 450.587C318.498 468.143 316.038 485.793 315.225 505.556C309.908 507.365 304.566 508.978 299.168 510.527C280.612 516.29 265.172 528.144 256.015 545.536C250.826 556.453 248.399 566.573 247.9 578.569C247.85 579.58 247.799 580.59 247.747 581.63C247.626 584.086 247.517 586.543 247.411 589C242.829 587.115 242.311 586.642 240.076 581.829C232.227 558.182 233.378 534.097 244.248 511.769C256.243 489.741 275.143 475.205 299.005 468.071C305.047 466.497 310.311 466.089 316.529 466.441C316.454 465.426 316.378 464.411 316.3 463.365C315.126 434.249 326.735 406.385 345.22 384.301C346.034 383.276 346.847 382.25 347.685 381.194C366.893 358.037 397.592 342.096 427.379 338.667C466.962 336.699 499.349 344.282 529.671 370.774C534.68 375.423 539.15 380.293 543.446 385.605C544.093 384.25 544.74 382.895 545.407 381.5C557.725 356.057 573.211 335.248 600.827 325.14C602.999 324.431 605.173 323.725 607.347 323.021C608.396 322.574 609.445 322.127 610.526 321.667C625.636 316.002 647.294 317.249 662.12 323.021Z" fill="#ACDAF1"/>
<path d="M662.172 323.013C663.466 323.486 664.76 323.959 666.093 324.447C692.325 334.619 709.543 353.757 720.845 378.982C728.383 397.631 729.208 422.542 722.149 441.46C716.893 453.37 710.84 464.954 701.287 474C700.543 473.763 699.798 473.527 699.031 473.283C687.363 469.672 675.544 466.801 663.475 464.889C663.092 462.996 663.092 462.996 662.701 461.065C657.545 437.337 647.408 417.83 627.472 403.103C614.817 394.998 601.768 391.486 586.874 391.51C585.732 391.51 584.59 391.509 583.413 391.508C575.359 391.644 568.511 392.86 561.006 395.939C557.794 397.233 554.751 397.928 551.344 398.506C550.203 396.953 549.096 395.375 548.003 393.788C547.383 392.912 546.762 392.036 546.123 391.134C544.332 386.94 544.949 384.662 546.129 380.284C550.702 369.282 556.41 359.242 564.382 350.347C565.663 348.887 565.663 348.887 566.97 347.398C578.251 335.314 591.816 328.052 607.41 323.013C608.983 322.343 608.983 322.343 610.588 321.66C625.695 316.005 647.348 317.251 662.172 323.013Z" fill="#F8AE2B"/>
<path d="M661.466 323.035C662.751 323.51 664.036 323.985 665.36 324.475C691.409 334.691 708.507 353.912 719.73 379.246C724.202 390.435 725.108 401.173 724.99 413.153C724.985 414.296 724.979 415.44 724.973 416.618C724.958 419.412 724.934 422.206 724.909 425C724.055 425 723.2 425 722.32 425C721.816 423.608 721.312 422.216 720.792 420.782C714.83 404.935 707.27 388.742 693.405 378.342C691.245 376.632 691.245 376.632 688.272 373.496C673.788 359.422 651.733 352.639 631.964 352.907C618.148 353.551 598.985 354.785 587.884 364.279C584.334 366.673 582.016 366.729 577.771 366.843C576.386 366.889 575.001 366.935 573.573 366.983C571.415 367.027 571.415 367.027 569.214 367.073C567.025 367.14 567.025 367.14 564.793 367.208C561.196 367.316 557.598 367.406 554 367.481C560.908 349.546 576.347 336.987 592.843 328.264C597.525 326.257 602.251 324.615 607.086 323.035C608.648 322.362 608.648 322.362 610.241 321.676C625.243 315.996 646.746 317.247 661.466 323.035Z" fill="#F8C850"/>
<path d="M493.433 643C502.53 643 511.627 643 521 643C519.267 646.884 517.534 650.768 515.749 654.77C514.787 657.264 513.851 659.769 512.96 662.289C511.731 665.749 510.489 669.177 509.104 672.578C507.734 675.861 507.734 675.861 506.724 680.107C505.248 684.848 505.248 684.848 502.858 688.843C498.632 696.026 496.179 703.973 493.433 711.805C493 712.99 492.567 714.175 492.121 715.396C491.742 716.468 491.363 717.539 490.972 718.644C489.225 721.982 487.434 723.419 484.245 725.388C480.624 726.233 477.376 726.174 473.743 725.388C469.706 721.969 468.631 719.997 468 714.763C468.492 711.003 468.492 711.003 471.118 707.08C471.817 704.619 472.437 702.136 473.005 699.642C475.776 687.476 480.9 676.114 485.609 664.591C486.052 663.496 486.495 662.401 486.952 661.273C487.346 660.305 487.741 659.338 488.147 658.341C490.058 653.28 491.717 648.129 493.433 643Z" fill="#F19635"/>
<path d="M433.4 643C442.838 643 452.276 643 462 643C462 643.866 462 644.733 462 645.625C461.142 645.625 460.284 645.625 459.4 645.625C459.078 646.654 458.756 647.683 458.425 648.743C456.358 654.794 453.979 660.696 451.6 666.628C450.706 668.897 449.812 671.167 448.919 673.437C445.715 681.519 442.276 689.484 438.732 697.418C437.675 699.883 436.674 702.373 435.705 704.874C435.159 706.277 434.613 707.679 434.05 709.125C433.554 710.434 433.058 711.744 432.547 713.093C430.643 716.815 429.17 718.373 425.6 720.446C421.131 721.185 421.131 721.185 416.5 720.446C412.6 717.083 412.6 717.083 410 712.57C410 706.578 411.784 701.591 413.971 696.06C415.519 692.056 416.891 687.999 418.287 683.938C420.297 678.212 422.45 672.688 425.031 667.202C428.689 659.372 431.012 651.306 433.4 643Z" fill="#F29734"/>
<path d="M555.066 643C563.294 643 571.523 643 580 643C578.317 652.006 576.124 660.596 573.285 669.309C572.893 670.52 572.501 671.73 572.098 672.978C571.275 675.512 570.447 678.044 569.616 680.576C568.348 684.453 567.107 688.338 565.867 692.224C565.061 694.696 564.252 697.166 563.442 699.637C563.076 700.796 562.709 701.956 562.332 703.15C559.682 711.084 559.682 711.084 556.342 714.433C552.556 716.224 550.025 716.243 545.88 715.657C542.107 713.711 542.107 713.711 539.319 710.467C538.083 701.762 540.662 694.097 543.256 685.816C543.763 684.187 544.271 682.558 544.793 680.879C546.963 673.962 549.168 667.057 551.406 660.161C551.883 658.672 552.36 657.184 552.852 655.65C553.28 654.332 553.708 653.014 554.149 651.656C555.288 647.95 555.288 647.95 555.066 643Z" fill="#F39433"/>
<path d="M766.2 404.203C767.66 404.179 769.119 404.154 770.623 404.129C782.53 404.198 782.53 404.198 786.618 407.937C788.839 411.343 788.839 411.343 789 415.865C787.209 421.254 786.069 422.457 781.105 425.306C776.365 426.05 771.716 426.015 766.925 425.941C765.021 425.97 765.021 425.97 763.078 426C757.357 425.97 753.735 425.873 748.722 423C745.316 419.102 744.92 416.446 745.011 411.343C749.139 402.45 757.581 404.059 766.2 404.203Z" fill="#F5A536"/>
<path d="M742.66 305.517C746.433 307.461 746.433 307.461 749.222 310.702C750.44 319.198 750.44 319.198 747.675 323.452C745.537 325.778 743.305 327.885 740.937 329.982C739.766 331.085 739.766 331.085 738.571 332.21C729.815 340.364 729.815 340.364 723.053 341C719.17 340.88 717.84 340.587 714.44 338.489C711.67 334.044 711.651 331.386 712.471 326.256C715.096 323.096 715.096 323.096 719.034 319.775C720.821 318.003 722.598 316.22 724.366 314.428C734.392 304.351 734.392 304.351 742.66 305.517Z" fill="#F4BC44"/>
<path d="M536.629 303.321C544.539 308.245 553.796 315.726 558.492 323.998C559.374 329.224 559.327 331.681 556.563 336.194C552.924 338.48 550.031 339.184 545.727 338.961C541.451 337.763 539.255 335.05 536.378 331.772C533.16 328.161 529.509 325.155 525.828 322.035C522.948 319.36 522.522 317.836 522 313.902C522.482 309.783 522.482 309.783 525.215 306.068C529.648 302.775 531.235 302.659 536.629 303.321Z" fill="#F5C146"/>
<path d="M409.297 740.535C413.735 743.234 417.472 746.448 419.804 751.17C420.588 759.258 419.054 763.325 414.551 769.782C409.121 773.232 403.709 773.524 397.476 772.441C393.349 770.224 390.605 767.082 387.708 763.385C386.515 758.69 386.912 754.415 388.283 749.841C393.54 741.188 399.574 738.785 409.297 740.535Z" fill="#F5AF42"/>
<path d="M636.658 260C642.864 260.959 644.372 262.317 648.088 267.264C649.072 272.071 649.02 276.741 648.922 281.629C648.961 283.558 648.961 283.558 649 285.526C648.957 291.753 648.843 294.988 644.995 300.11C640.293 303.278 637.667 303.419 632.069 302.523C628.515 299.827 626.928 298.272 626.039 293.913C626.033 292.66 626.027 291.408 626.021 290.117C626.014 288.744 626.007 287.37 626 285.955C626.021 284.527 626.041 283.1 626.063 281.629C626.042 280.201 626.021 278.774 626 277.303C626.01 275.243 626.01 275.243 626.021 273.141C626.027 271.888 626.033 270.636 626.039 269.345C627.294 263.193 630.524 260.982 636.658 260Z" fill="#F4C14B"/>
<path d="M463.086 745C468.727 746.039 472.424 747.422 475.846 752.211C477.066 756.145 477.233 758.953 476.745 763.068C474.076 767.918 472.16 770.586 467.585 773.676C462.073 774.297 459.359 774.294 454.662 771.19C450.932 767.411 450.636 766.258 450 760.83C450.085 754.97 452.125 751.693 456.093 747.538C458.424 745.829 458.424 745.829 463.086 745Z" fill="#F4AB3E"/>
<path d="M542.015 738.576C546.486 742.005 548.285 743.777 549 749.267C548.774 754.586 547.823 758.326 543.832 762.05C538.617 764.994 536.034 765.519 530.12 764.568C526.481 762.234 524.137 760.601 522.189 756.77C521.466 749.374 522.727 745.644 527.476 739.875C532.114 737.595 536.966 737.704 542.015 738.576Z" fill="#F5A53A"/>
<path d="M370.098 703C374.77 703.829 374.77 703.829 378.692 706.481C382.501 711.986 382.393 714.479 381.445 721.07C379.526 724.385 379.526 724.385 376.105 726.375C371.926 727.175 368.263 727.242 364.091 726.375C359.664 722.835 358.898 720.651 358 715.102C358.751 710.46 358.751 710.46 361.504 706.564C365.426 703.829 365.426 703.829 370.098 703Z" fill="#F4AD3F"/>
<path d="M539.301 703C539.725 703 540.149 703 540.586 703C540.851 704.303 541.115 705.605 541.388 706.947C542.795 711.55 542.795 711.55 546.848 713.383C550.859 714.433 550.859 714.433 553.913 712.096C554.601 711.36 555.29 710.623 556 709.865C556 711.677 556 713.49 556 715.357C552.335 717.316 549.79 717.156 545.724 716.73C542.031 714.499 542.031 714.499 539.301 711.238C538.9 706.776 538.9 706.776 539.301 703Z" fill="#E9AB4B"/>
<path d="M645 417C646.788 418.612 648.52 420.284 650.2 422C650.2 422.825 650.2 423.65 650.2 424.5C651.058 424.5 651.916 424.5 652.8 424.5C654.516 427.8 656.232 431.1 658 434.5C657.142 435.325 656.284 436.15 655.4 437C654.15 434.841 652.905 432.679 651.662 430.516C650.969 429.312 650.275 428.108 649.56 426.868C647.805 423.628 646.338 420.415 645 417Z" fill="#F49D2D"/>
<path d="M459.024 643C460.336 643 461.648 643 463 643C463 643.863 463 644.726 463 645.615C462.125 645.615 461.251 645.615 460.35 645.615C459.967 646.775 459.584 647.935 459.19 649.13C457.922 652.813 456.549 656.405 455.049 660C453.816 656.663 453.61 655.109 454.754 651.684C455.261 650.652 455.768 649.621 456.291 648.558C456.795 647.513 457.299 646.467 457.818 645.391C458.216 644.602 458.614 643.813 459.024 643Z" fill="#BB6E2D"/>
<path d="M243 586C246.3 587.35 246.3 587.35 249.667 588.727C250.107 592.777 250.547 596.827 251 601C247.071 596.982 245.239 593.853 243 588.727C243 587.827 243 586.927 243 586Z" fill="#76B7E3"/>
<path d="M415.4 763C416.258 763.424 417.116 763.849 418 764.286C411.314 771.449 411.314 771.449 406.3 772C405.871 771.151 405.442 770.303 405 769.429C407.574 768.58 410.148 767.731 412.8 766.857C412.8 766.009 412.8 765.16 412.8 764.286C413.658 763.861 414.516 763.437 415.4 763Z" fill="#E79A39"/>
<path d="M692 470C692.938 470.232 693.877 470.464 694.844 470.703C698.667 471.275 701.283 470.919 705 470C703.069 472.475 703.069 472.475 701.1 475C698.097 474.175 695.094 473.35 692 472.5C692 471.675 692 470.85 692 470Z" fill="#F18C35"/>
<path d="M714.5 451C715.325 451.45 716.15 451.9 717 452.364C713.287 459.114 713.287 459.114 709.5 466C708.675 465.1 707.85 464.2 707 463.273C707.825 463.273 708.65 463.273 709.5 463.273C709.629 462.513 709.758 461.754 709.891 460.972C710.914 457.216 712.573 454.29 714.5 451Z" fill="#EE8B2B"/>
</svg>
